<?xml version="1.0" encoding="utf-8"?>
<!-- Generator: Adobe Illustrator 25.0.1, SVG Export Plug-In . SVG Version: 6.00 Build 0)  -->
<svg version="1.1" id="图层_1" xmlns="http://www.w3.org/2000/svg" xmlns:xlink="http://www.w3.org/1999/xlink" x="0px" y="0px"
	 viewBox="0 0 1265.33 350" style="enable-background:new 0 0 1265.33 350;" xml:space="preserve">
<style type="text/css">
	.st0{fill:#8071B4;}
</style>
<path class="st0" d="M173.18,154.71c-7.25,0-12.98,6.23-12.98,13.99c0,7.76,5.85,13.99,12.98,13.99c7.25,0,12.98-6.23,12.98-13.99
	C186.16,160.94,180.31,154.71,173.18,154.71z M126.75,154.71c-7.25,0-12.98,6.23-12.98,13.99c0,7.76,5.85,13.99,12.98,13.99
	c7.25,0,12.98-6.23,12.98-13.99C139.85,160.94,134,154.71,126.75,154.71z"/>
<path class="st0" d="M235.01,48.87H64.54c-14.38,0-26.08,11.7-26.08,26.08v170.47c0,14.38,11.7,26.08,26.08,26.08H208.8l-6.74-23.28
	l16.28,15.01l15.39,14.12l27.48,23.79V74.94C261.09,60.57,249.39,48.87,235.01,48.87z M185.9,213.61c0,0-4.58-5.47-8.4-10.18
	c16.67-4.71,23.03-15.01,23.03-15.01c-5.22,3.43-10.18,5.85-14.63,7.51c-6.36,2.67-12.47,4.33-18.45,5.47
	c-12.21,2.29-23.41,1.65-32.95-0.13c-7.25-1.4-13.48-3.31-18.7-5.47c-2.93-1.14-6.11-2.54-9.29-4.33c-0.38-0.25-0.76-0.38-1.14-0.64
	c-0.25-0.13-0.38-0.25-0.51-0.25c-2.29-1.27-3.56-2.16-3.56-2.16s6.11,10.05,22.26,14.88c-3.82,4.83-8.52,10.43-8.52,10.43
	c-28.11-0.89-38.8-19.21-38.8-19.21c0-40.58,18.32-73.53,18.32-73.53c18.32-13.61,35.62-13.23,35.62-13.23l1.27,1.53
	c-22.9,6.49-33.33,16.54-33.33,16.54s2.8-1.53,7.51-3.56c13.61-5.98,24.43-7.51,28.88-8.01c0.76-0.13,1.4-0.25,2.16-0.25
	c7.76-1.02,16.54-1.27,25.7-0.25c12.09,1.4,25.06,4.96,38.29,12.09c0,0-10.05-9.54-31.68-16.03l1.78-2.04
	c0,0,17.43-0.38,35.62,13.23c0,0,18.32,32.95,18.32,73.53C224.71,194.4,214.02,212.72,185.9,213.61z"/>
<g>
	<path class="st0" d="M397.25,86.55h-61.43v69.02l40.89,36.82v-66.98h21.83c13.88,0,20.72,6.66,20.72,17.39v51.25
		c0,10.73-6.48,17.95-20.72,17.95h-62.91v39.04h61.43c32.94,0.19,63.84-16.28,63.84-54.03v-55.14
		C461.09,103.39,430.19,86.55,397.25,86.55L397.25,86.55z"/>
	<path class="st0" d="M719.21,197.01v-56.62c0-20.35,36.64-24.98,47.74-4.63l33.86-13.69c-13.32-29.24-37.56-37.75-57.73-37.75
		c-32.94,0-65.5,19.06-65.5,56.07v56.62c0,37.38,32.57,56.07,64.76,56.07c20.72,0,45.52-10.18,59.21-36.82l-36.27-16.65
		C756.4,222.36,719.21,216.81,719.21,197.01L719.21,197.01z"/>
	<path class="st0" d="M607.27,148.16c-12.77-2.78-21.28-7.4-21.83-15.36c0.74-19.06,30.16-19.8,47.37-1.48l27.2-20.91
		c-17.02-20.72-36.27-26.27-56.07-26.27c-30.16,0-59.4,17.02-59.4,49.22c0,31.27,24.05,48.11,50.51,52.18
		c13.51,1.85,28.5,7.22,28.13,16.47c-1.11,17.58-37.38,16.65-53.84-3.33l-26.27,24.61c15.36,19.8,36.27,29.79,55.88,29.79
		c30.16,0,63.65-17.39,64.95-49.22C665.74,163.71,636.5,153.53,607.27,148.16L607.27,148.16z"/>
	<rect x="483.29" y="86.55" class="st0" width="41.45" height="164.31"/>
	<path class="st0" d="M1182.16,86.55h-61.43v69.02l40.89,36.82v-66.98h21.83c13.88,0,20.72,6.66,20.72,17.39v51.25
		c0,10.73-6.48,17.95-20.72,17.95h-62.91v39.04h61.62c32.94,0.19,63.84-16.28,63.84-54.03v-55.14
		C1246,103.39,1215.1,86.55,1182.16,86.55z"/>
	<path class="st0" d="M880.74,84.33c-34.05,0-67.91,18.5-67.91,56.44v56.06c0,37.56,34.05,56.44,68.28,56.44
		c34.05,0,67.91-18.87,67.91-56.44v-56.07C949.02,103.02,914.79,84.33,880.74,84.33z M907.39,196.83
		c0,11.84-13.32,17.95-26.46,17.95c-13.32,0-26.64-5.74-26.64-17.95v-56.07c0-12.03,12.95-18.5,25.9-18.5
		c13.51,0,27.2,5.74,27.2,18.5V196.83z"/>
	<path class="st0" d="M1065.59,194.61c19.8-6.29,32.2-23.5,32.2-53.84c-0.93-38.49-27.2-54.03-61.06-54.03h-65.69v164.31h42v-52.18
		h7.4l38.12,52.18h51.81L1065.59,194.61z M1037.47,162.97h-24.42v-37.56h24.42C1063.56,125.41,1063.56,162.97,1037.47,162.97z"/>
</g>
</svg>
